<svg width="32" height="32" viewBox="0 0 32 32" fill="none" xmlns="http://www.w3.org/2000/svg">
<rect width="32" height="32" rx="6" fill="#55A2FC"/>
<path d="M20.7081 11.8125C19.8839 7.98438 18.1261 5.5625 16.5003 5.5625C14.8745 5.5625 13.1167 7.98438 12.2925 11.8125H20.7081Z" fill="white"/>
<path d="M11.8125 16.5C11.8123 17.5452 11.882 18.5891 12.0211 19.625H20.9789C21.118 18.5891 21.1877 17.5452 21.1875 16.5C21.1877 15.4548 21.118 14.4109 20.9789 13.375H12.0211C11.882 14.4109 11.8123 15.4548 11.8125 16.5Z" fill="white"/>
<path d="M12.2925 21.1875C13.1167 25.0156 14.8745 27.4375 16.5003 27.4375C18.1261 27.4375 19.8839 25.0156 20.7081 21.1875H12.2925Z" fill="white"/>
<path d="M22.3078 11.8125H27.2297C26.4902 10.1296 25.3665 8.64329 23.9489 7.47297C22.5312 6.30265 20.859 5.48085 19.0664 5.07349C20.5484 6.37739 21.7109 8.78833 22.3078 11.8125Z" fill="white"/>
<path d="M27.7913 13.375H22.5569C22.6858 14.4117 22.7503 15.4553 22.7499 16.5C22.75 17.5447 22.6853 18.5883 22.5562 19.625H27.7905C28.3603 17.5806 28.3603 15.4194 27.7905 13.375H27.7913Z" fill="white"/>
<path d="M19.0664 27.9266C20.8593 27.5194 22.5318 26.6977 23.9497 25.5274C25.3677 24.3571 26.4916 22.8707 27.2312 21.1875H22.3094C21.7109 24.2117 20.5484 26.6227 19.0664 27.9266Z" fill="white"/>
<path d="M10.6924 21.1875H5.77051C6.51019 22.8707 7.63408 24.3571 9.05202 25.5274C10.47 26.6977 12.1425 27.5194 13.9354 27.9266C12.4518 26.6227 11.2893 24.2117 10.6924 21.1875Z" fill="white"/>
<path d="M13.9334 5.07349C12.1405 5.48063 10.468 6.30233 9.05007 7.47266C7.63213 8.64299 6.50824 10.1294 5.76855 11.8125H10.6904C11.2889 8.78833 12.4514 6.37739 13.9334 5.07349Z" fill="white"/>
<path d="M10.2502 16.5C10.2501 15.4553 10.3148 14.4117 10.4439 13.375H5.20953C4.63979 15.4194 4.63979 17.5806 5.20953 19.625H10.4439C10.3148 18.5883 10.2501 17.5447 10.2502 16.5Z" fill="white"/>
</svg>
