<svg width="32" height="32" viewBox="0 0 32 32" fill="none" xmlns="http://www.w3.org/2000/svg">
<rect width="32" height="32" rx="6" fill="#F05251"/>
<g clip-path="url(#clip0_1_1435)">
<path d="M20.6249 17.2086C20.2332 17.2086 19.9166 17.526 19.9166 17.9169V20.7503C19.9166 21.1405 19.5992 21.4586 19.2082 21.4586H17.0832V10.8337C17.0832 10.2288 16.6979 9.6883 16.1185 9.48714L15.9088 9.41698H19.2082C19.5992 9.41698 19.9166 9.735 19.9166 10.1254V12.2504C19.9166 12.6413 20.2332 12.9586 20.6249 12.9586C21.0166 12.9586 21.3332 12.6413 21.3332 12.2504V10.1254C21.3332 8.95382 20.3798 8.00041 19.2082 8.00041H11.5937C11.5668 8.00041 11.5442 8.01247 11.518 8.01597C11.4839 8.01312 11.4513 8.00041 11.4167 8.00041C10.6354 8.00041 10 8.63567 10 9.41698V22.1668C10 22.7718 10.3853 23.3122 10.9647 23.5134L15.2275 24.9343C15.372 24.979 15.5157 25.0002 15.6667 25.0002C16.448 25.0002 17.0832 24.3648 17.0832 23.5835V22.8753H19.2082C20.3798 22.8753 21.3332 21.9218 21.3332 20.7503V17.9169C21.3332 17.526 21.0166 17.2086 20.6249 17.2086Z" fill="white"/>
<path d="M26.7921 14.5827L23.9587 11.7494C23.7563 11.5468 23.4516 11.4859 23.1868 11.5956C22.9226 11.7054 22.7497 11.9639 22.7497 12.2502V14.3752H19.9164C19.5254 14.3752 19.208 14.6924 19.208 15.0834C19.208 15.4745 19.5254 15.7917 19.9164 15.7917H22.7497V17.9167C22.7497 18.2029 22.9226 18.4614 23.1868 18.5713C23.4516 18.681 23.7563 18.6201 23.9587 18.4176L26.7921 15.5842C27.069 15.3073 27.069 14.8596 26.7921 14.5827Z" fill="white"/>
</g>
<defs>
<clipPath id="clip0_1_1435">
<rect width="17" height="17" fill="white" transform="translate(10 8)"/>
</clipPath>
</defs>
</svg>
