<svg width="32" height="32" viewBox="0 0 32 32" fill="none" xmlns="http://www.w3.org/2000/svg">
<rect width="32" height="32" rx="6" fill="#FEA933"/>
<g clip-path="url(#clip0_1_1420)">
<path d="M10.7808 12.4758H20.346C20.7558 12.4758 21.0882 12.1434 21.0882 11.7336C21.0882 11.3238 20.7558 10.9914 20.346 10.9914H10.7808C10.371 10.9914 10.0386 11.3238 10.0386 11.7336C10.0386 12.1434 10.371 12.4758 10.7808 12.4758Z" fill="white"/>
<path d="M17.1999 16.3602C17.1999 15.9504 16.8675 15.618 16.4577 15.618H10.7808C10.371 15.618 10.0386 15.9504 10.0386 16.3602C10.0386 16.7699 10.371 17.1023 10.7808 17.1023H16.4577C16.8675 17.1023 17.1999 16.7699 17.1999 16.3602Z" fill="white"/>
<path d="M25.009 18.6449C25.0887 17.7727 25.1422 16.7563 25.1434 15.5715C25.141 13.3422 24.9539 11.7098 24.7543 10.5102C24.4051 8.53359 22.6098 6.73828 20.6332 6.38906C19.4336 6.18945 17.8012 6.00234 15.5715 6C13.3422 6.00234 11.7094 6.18945 10.5098 6.38906C8.53359 6.73828 6.73828 8.53359 6.38906 10.5102C6.18945 11.7098 6.00273 13.3422 6 15.5715C6.00273 17.8008 6.18945 19.4336 6.38906 20.6332C6.73828 22.6098 8.53359 24.4051 10.5102 24.7543C11.7098 24.9539 13.3422 25.1406 15.5719 25.1434C16.7562 25.1422 17.7727 25.0887 18.6445 25.009C19.4195 25.6289 20.4023 26 21.4719 26C23.9727 26 26.0004 23.9727 26.0004 21.4719C26.0004 20.4023 25.6293 19.4195 25.0094 18.6449H25.009ZM15.5719 23.659C13.8133 23.657 12.2398 23.5367 10.7621 23.2914C10.1055 23.1738 9.44023 22.8055 8.88906 22.2543C8.33789 21.7031 7.96992 21.0383 7.85195 20.3813C7.60664 18.9051 7.48672 17.3316 7.48438 15.5715C7.48633 13.8121 7.60664 12.2387 7.85195 10.7617C7.96953 10.1051 8.33789 9.44023 8.88906 8.88906C9.44023 8.33789 10.1051 7.96992 10.7621 7.85195C12.2391 7.60664 13.8125 7.48672 15.5719 7.48438C17.3305 7.48633 18.9039 7.60664 20.3816 7.85195C21.0383 7.96953 21.7031 8.33789 22.2547 8.88906C22.8059 9.44023 23.1738 10.1051 23.2918 10.7621C23.5371 12.2398 23.657 13.8129 23.6594 15.5719C23.6586 16.232 23.6406 16.8652 23.6063 17.4777C22.9703 17.1371 22.2437 16.9441 21.4719 16.9441C18.9711 16.9441 16.9434 18.9715 16.9434 21.4723C16.9434 22.2441 17.1367 22.9703 17.477 23.6063C16.8645 23.6406 16.2312 23.6586 15.5715 23.659H15.5719ZM21.4719 24.5156C19.7934 24.5156 18.4277 23.1504 18.4277 21.4719C18.4277 19.7934 19.7934 18.4281 21.4719 18.4281C23.1504 18.4281 24.516 19.7934 24.516 21.4719C24.516 23.1504 23.1504 24.5156 21.4719 24.5156Z" fill="white"/>
<path d="M21.8702 22.3375C21.7757 22.3219 21.6472 22.307 21.4718 22.307C21.2964 22.307 21.1679 22.3219 21.0733 22.3375C20.9179 22.3648 20.7765 22.5062 20.7487 22.6621C20.7331 22.7566 20.7183 22.8852 20.7183 23.0605C20.7183 23.2359 20.7331 23.3645 20.7487 23.459C20.7761 23.6145 20.9175 23.7559 21.0733 23.7836C21.1679 23.7992 21.2964 23.8141 21.4718 23.8141C21.6472 23.8141 21.7757 23.7992 21.8702 23.7836C22.0257 23.7562 22.1671 23.6148 22.1948 23.459C22.2104 23.3645 22.2253 23.2359 22.2253 23.0605C22.2253 22.8852 22.2104 22.7566 22.1948 22.6621C22.1675 22.5066 22.0261 22.3652 21.8702 22.3375Z" fill="white"/>
<path d="M21.4717 21.8449C21.8814 21.8449 22.2139 21.5125 22.2139 21.1027V19.8645C22.2139 19.4547 21.8814 19.1223 21.4717 19.1223C21.0619 19.1223 20.7295 19.4547 20.7295 19.8645V21.1027C20.7295 21.5125 21.0619 21.8449 21.4717 21.8449Z" fill="white"/>
</g>
<defs>
<clipPath id="clip0_1_1420">
<rect width="20" height="20" fill="white" transform="translate(6 6)"/>
</clipPath>
</defs>
</svg>
