<svg width="32" height="32" viewBox="0 0 32 32" fill="none" xmlns="http://www.w3.org/2000/svg">
<rect width="32" height="32" rx="6" fill="#0AAF72"/>
<g clip-path="url(#clip0_1_1400)">
<path fill-rule="evenodd" clip-rule="evenodd" d="M25.7058 8.05347C25.7825 8.51677 26.1731 10.8759 26.2323 13.9593V13.9598C26.2787 17.0312 25.9858 18.5597 25.9289 18.8565L25.9289 18.8566C25.9219 18.8927 25.9185 18.9106 25.9196 18.9107C25.6604 19.8717 25.1242 20.85 24.331 21.847C23.5032 22.8862 22.3853 23.9601 21.0343 25.0167C18.7998 26.7707 16.7054 27.8226 16.6173 27.8597C16.4279 27.9529 16.2268 28.0003 16.0192 28.0003C15.812 28.0007 15.6109 27.9534 15.421 27.8606C15.3334 27.8236 13.2414 26.775 11.0059 25.0204C9.65542 23.9648 8.53745 22.8909 7.71011 21.8512C6.96995 20.9203 6.45339 20.0048 6.17729 19.1048C6.17906 19.1047 6.17506 19.0911 6.16656 19.0623C6.09375 18.8155 5.69044 17.4485 5.74417 13.7817C5.83358 10.1658 6.3072 8.29731 6.40574 7.90858C6.41878 7.85712 6.42525 7.83159 6.42339 7.83137C6.63011 7.50137 6.94745 7.22996 7.32573 7.08325C10.1378 5.99387 12.9029 4.95465 15.5987 4.06871C15.8739 3.97778 16.1645 3.97778 16.4401 4.06871C19.1364 4.957 21.902 5.99809 24.7145 7.08887C25.1429 7.25528 25.4931 7.58106 25.6928 7.97059C25.6921 7.97084 25.6968 7.9991 25.7058 8.05347ZM18.3795 15.641C18.3795 16.9796 17.2944 18.0647 15.9558 18.0647C14.6173 18.0647 13.5322 16.9796 13.5322 15.641C13.5322 14.3025 14.6173 13.2174 15.9558 13.2174C17.2944 13.2174 18.3795 14.3025 18.3795 15.641ZM14.838 9.92002C15.075 9.87351 15.2862 10.0621 15.2862 10.3036V11.9723C15.2862 12.1644 15.1499 12.3275 14.9663 12.3841C13.592 12.8079 12.5933 14.088 12.5933 15.6013C12.5933 17.4604 14.1004 18.9675 15.9595 18.9675C17.8186 18.9675 19.3257 17.4604 19.3257 15.6013C19.3257 14.0879 18.3269 12.8077 16.9526 12.384C16.769 12.3274 16.6327 12.1644 16.6327 11.9723V10.3036C16.6327 10.0621 16.8438 9.87348 17.0808 9.91998C19.7418 10.4422 21.7494 12.7873 21.7494 15.6013C21.7494 18.799 19.1572 21.3912 15.9595 21.3912C12.7619 21.3912 10.1697 18.799 10.1697 15.6013C10.1697 12.7874 12.1771 10.4423 14.838 9.92002Z" fill="white"/>
</g>
<defs>
<clipPath id="clip0_1_1400">
<rect width="24" height="24" fill="white" transform="translate(4 4)"/>
</clipPath>
</defs>
</svg>
