<svg width="33" height="32" viewBox="0 0 33 32" fill="none" xmlns="http://www.w3.org/2000/svg">
<rect x="0.86377" width="32" height="32" rx="6" fill="#1486FF"/>
<path d="M22.15 10.7692C22.15 13.7124 19.7641 16.0983 16.8209 16.0983C13.8777 16.0983 11.4917 13.7124 11.4917 10.7692C11.4917 7.82595 13.8777 5.44 16.8209 5.44C19.7641 5.44 22.15 7.82595 22.15 10.7692Z" fill="white"/>
<path d="M7.3999 22.0341C7.3999 19.4117 9.52576 17.2859 12.1481 17.2859H21.5693C24.1917 17.2859 26.3176 19.4117 26.3176 22.0341C26.3176 24.6565 24.1917 26.7823 21.5693 26.7823H12.1481C9.52576 26.7823 7.3999 24.6565 7.3999 22.0341Z" fill="white"/>
</svg>
