<svg width="32" height="32" viewBox="0 0 32 32" fill="none" xmlns="http://www.w3.org/2000/svg">
<rect width="32" height="32" rx="6" fill="#505EFF"/>
<path d="M15.9788 5C9.92505 5 5 9.92512 5 15.9788C5 22.0324 9.92505 26.9576 15.9788 26.9576C22.0325 26.9576 26.9575 22.0325 26.9575 15.9788C26.9575 9.92519 22.0324 5 15.9788 5ZM19.9503 12.8031C19.9503 13.2786 19.8017 13.7242 19.5047 14.1398C19.2075 14.5557 18.87 14.8933 18.4921 15.1525C18.1139 15.4117 17.7331 15.7224 17.3498 16.0841C16.9663 16.4461 16.7098 16.8051 16.5803 17.1615C16.5154 17.799 16.1752 18.1174 15.5595 18.1174C15.3109 18.1174 15.1192 18.031 14.9844 17.8582C14.8492 17.6855 14.7872 17.464 14.798 17.1939C14.8735 16.8374 15.0411 16.4946 15.3003 16.165C15.5595 15.8357 15.8403 15.5468 16.1428 15.2982C16.445 15.0498 16.7448 14.8069 17.042 14.5691C17.3389 14.3316 17.5873 14.0778 17.7873 13.8077C17.987 13.5378 18.087 13.2623 18.087 12.9813C18.087 12.4305 17.8845 11.993 17.4795 11.669C17.0744 11.3449 16.4993 11.1829 15.754 11.1829C14.9006 11.1829 14.1337 11.4584 13.4533 12.0092C13.0426 12.3981 12.6537 12.4198 12.2867 12.074C11.9194 11.7499 11.914 11.4097 12.2704 11.0533C13.318 10.092 14.5493 9.61134 15.9645 9.61134C17.1635 9.61134 18.1275 9.89233 18.8566 10.4537C19.5857 11.0156 19.9503 11.7987 19.9503 12.8031ZM16.7341 19.843C17.0202 20.1079 17.1635 20.4562 17.1635 20.888C17.1635 21.3201 17.023 21.6712 16.7423 21.9412C16.4613 22.2112 16.0995 22.3461 15.6568 22.3461C15.2246 22.3461 14.8682 22.2112 14.5874 21.9412C14.3064 21.6712 14.1661 21.3201 14.1661 20.888C14.1661 20.4561 14.3064 20.1078 14.5874 19.843C14.8682 19.5785 15.2246 19.446 15.6568 19.446C16.0886 19.446 16.4478 19.5785 16.7341 19.843Z" fill="white"/>
</svg>
